<svg width="930" height="111" viewBox="0 0 930 111" fill="none" xmlns="http://www.w3.org/2000/svg">
<circle cx="55.5" cy="55.5" r="55.5" fill="#1E2A3B"/>
<path d="M36 55.5H49" stroke="#94A3B8" stroke-width="5" stroke-linecap="round" stroke-linejoin="round"/>
<path d="M42.5 49V62" stroke="#94A3B8" stroke-width="5" stroke-linecap="round" stroke-linejoin="round"/>
<path d="M65.25 58.75H65.2814" stroke="#94A3B8" stroke-width="5" stroke-linecap="round" stroke-linejoin="round"/>
<path d="M75 52.25H75.0313" stroke="#94A3B8" stroke-width="5" stroke-linecap="round" stroke-linejoin="round"/>
<path d="M81.5 36H29.5C25.9101 36 23 38.9101 23 42.5V68.5C23 72.0899 25.9101 75 29.5 75H81.5C85.0899 75 88 72.0899 88 68.5V42.5C88 38.9101 85.0899 36 81.5 36Z" stroke="#94A3B8" stroke-width="5" stroke-linecap="round" stroke-linejoin="round"/>
<path d="M141.5 84V74.5H132V36.5H141.5V27H179.5V36.5H189V46H170V36.5H151V74.5H170V65H160.5V55.5H189V84H141.5ZM204.2 84V36.5H213.7V55.5H232.7V36.5H213.7V27H251.7V36.5H261.2V84H232.7V65H213.7V84H204.2ZM276.4 84V27H285.9V36.5H295.4V46H304.9V36.5H314.4V27H333.4V84H314.4V55.5H304.9V65H295.4V55.5H285.9V84H276.4ZM348.6 84V27H405.6V36.5H367.6V46H396.1V55.5H367.6V74.5H405.6V84H348.6ZM420.8 84V27H477.8V36.5H439.8V55.5H468.3V65H439.8V84H420.8ZM531 84V74.5H550V84H531ZM531 55.5V36.5H512V55.5H531ZM493 84V27H540.5V36.5H550V55.5H540.5V65H531V74.5H521.5V65H512V84H493ZM574.7 84V74.5H584.2V36.5H574.7V27H612.7V36.5H603.2V74.5H612.7V84H574.7ZM637.4 84V27H694.4V36.5H656.4V46H684.9V55.5H656.4V74.5H694.4V84H637.4ZM709.6 84V27H719.1V36.5H728.6V46H738.1V55.5H747.6V27H766.6V84H747.6V74.5H738.1V65H728.6V55.5H719.1V84H709.6ZM810.3 74.5V36.5H791.3V74.5H810.3ZM781.8 84V27H829.3V36.5H838.8V74.5H829.3V84H781.8ZM854 74.5V65H863.5V74.5H854ZM863.5 84V74.5H882.5V55.5H863.5V46H854V36.5H863.5V27H901.5V36.5H873V46H901.5V55.5H911V74.5H901.5V84H863.5Z" fill="white"/>
</svg>
